<svg width="24" height="24" viewBox="0 0 24 24" fill="none" xmlns="http://www.w3.org/2000/svg">
<mask id="mask0_75_51" style="mask-type:alpha" maskUnits="userSpaceOnUse" x="0" y="0" width="24" height="24">
<rect width="24" height="24" fill="#D9D9D9"/>
</mask>
<g mask="url(#mask0_75_51)">
<path d="M10.9499 15.2028L16.2537 9.8991L15.1844 8.82985L10.9499 13.0646L8.83066 10.9453L7.76141 12.0146L10.9499 15.2028ZM11.9999 21.4798C9.83707 20.89 8.04641 19.6169 6.62791 17.6606C5.20924 15.7043 4.49991 13.5171 4.49991 11.0991V5.34535L11.9999 2.5376L19.4999 5.34535V11.0991C19.4999 13.5171 18.7906 15.7043 17.3719 17.6606C15.9534 19.6169 14.1627 20.89 11.9999 21.4798ZM11.9999 19.8991C13.7332 19.3491 15.1666 18.2491 16.2999 16.5991C17.4332 14.9491 17.9999 13.1158 17.9999 11.0991V6.3741L11.9999 4.1336L5.99991 6.3741V11.0991C5.99991 13.1158 6.56658 14.9491 7.69991 16.5991C8.83324 18.2491 10.2666 19.3491 11.9999 19.8991Z" fill="#0D1292"/>
</g>
</svg>
