<svg width="24" height="24" viewBox="0 0 24 24" fill="none" xmlns="http://www.w3.org/2000/svg">
<mask id="mask0_75_63" style="mask-type:alpha" maskUnits="userSpaceOnUse" x="0" y="0" width="24" height="24">
<rect width="24" height="24" fill="#D9D9D9"/>
</mask>
<g mask="url(#mask0_75_63)">
<path d="M12.4799 21C11.179 21 9.95301 20.7524 8.80205 20.2572C7.65091 19.762 6.64375 19.0828 5.78058 18.2194C4.91723 17.3562 4.23796 16.3474 3.74277 15.193C3.24759 14.0386 3 12.8076 3 11.5C3 10.175 3.25029 8.9397 3.75087 7.79396C4.25144 6.64821 4.94376 5.6421 5.82782 4.77562C6.7117 3.90896 7.7473 3.22969 8.93463 2.73782C10.1218 2.24594 11.3865 2 12.7289 2C13.999 2 15.1965 2.21819 16.3214 2.65456C17.4464 3.09093 18.4291 3.68956 19.2695 4.45043C20.1101 5.2113 20.7753 6.10301 21.2651 7.12556C21.755 8.14794 22 9.24871 22 10.4279C22 11.9042 21.4891 13.2001 20.4672 14.3155C19.4454 15.4312 18.1294 15.989 16.5192 15.989H14.7847C14.5049 15.989 14.2543 16.086 14.0328 16.28C13.8113 16.4742 13.7005 16.7212 13.7005 17.021C13.7005 17.3957 13.831 17.6484 14.092 17.7789C14.353 17.9094 14.4835 18.3219 14.4835 19.0165C14.4835 19.4795 14.2972 19.9259 13.9245 20.3556C13.5516 20.7852 13.0701 21 12.4799 21ZM6.86264 12.1786C7.21723 12.1786 7.52337 12.0497 7.78106 11.792C8.03874 11.5344 8.16758 11.2282 8.16758 10.8736C8.16758 10.519 8.03874 10.2129 7.78106 9.95521C7.52337 9.69752 7.21723 9.56868 6.86264 9.56868C6.50804 9.56868 6.2019 9.69752 5.94422 9.95521C5.68653 10.2129 5.55769 10.519 5.55769 10.8736C5.55769 11.2282 5.68653 11.5344 5.94422 11.792C6.2019 12.0497 6.50804 12.1786 6.86264 12.1786ZM9.99451 8.42033C10.3491 8.42033 10.6552 8.29149 10.9129 8.03381C11.1706 7.77612 11.2995 7.46998 11.2995 7.11538C11.2995 6.76079 11.1706 6.45465 10.9129 6.19696C10.6552 5.93928 10.3491 5.81044 9.99451 5.81044C9.63991 5.81044 9.33377 5.93928 9.07609 6.19696C8.8184 6.45465 8.68956 6.76079 8.68956 7.11538C8.68956 7.46998 8.8184 7.77612 9.07609 8.03381C9.33377 8.29149 9.63991 8.42033 9.99451 8.42033ZM15.0055 8.42033C15.3601 8.42033 15.6662 8.29149 15.9239 8.03381C16.1816 7.77612 16.3104 7.46998 16.3104 7.11538C16.3104 6.76079 16.1816 6.45465 15.9239 6.19696C15.6662 5.93928 15.3601 5.81044 15.0055 5.81044C14.6509 5.81044 14.3448 5.93928 14.0871 6.19696C13.8294 6.45465 13.7005 6.76079 13.7005 7.11538C13.7005 7.46998 13.8294 7.77612 14.0871 8.03381C14.3448 8.29149 14.6509 8.42033 15.0055 8.42033ZM18.1374 12.1786C18.492 12.1786 18.7981 12.0497 19.0558 11.792C19.3135 11.5344 19.4423 11.2282 19.4423 10.8736C19.4423 10.519 19.3135 10.2129 19.0558 9.95521C18.7981 9.69752 18.492 9.56868 18.1374 9.56868C17.7828 9.56868 17.4766 9.69752 17.2189 9.95521C16.9613 10.2129 16.8324 10.519 16.8324 10.8736C16.8324 11.2282 16.9613 11.5344 17.2189 11.792C17.4766 12.0497 17.7828 12.1786 18.1374 12.1786ZM12.4799 19.6429C12.6847 19.6429 12.8436 19.5706 12.9567 19.426C13.0698 19.2814 13.1264 19.1449 13.1264 19.0165C13.1264 18.7381 12.9959 18.5079 12.7349 18.3259C12.4739 18.1439 12.3434 17.729 12.3434 17.0812C12.3434 16.4067 12.5739 15.8298 13.035 15.3506C13.4961 14.8715 14.0572 14.6319 14.7184 14.6319H16.5192C17.748 14.6319 18.7424 14.2066 19.5026 13.3562C20.2628 12.5055 20.6429 11.5294 20.6429 10.4279C20.6429 8.42033 19.8679 6.74 18.318 5.38685C16.7682 4.03371 14.9052 3.35714 12.7289 3.35714C10.3774 3.35714 8.39421 4.14881 6.77938 5.73214C5.16456 7.31548 4.35714 9.2381 4.35714 11.5C4.35714 13.7619 5.14881 15.6845 6.73214 17.2679C8.31548 18.8512 10.2314 19.6429 12.4799 19.6429Z" fill="#0D1292"/>
</g>
</svg>
