<svg width="24" height="24" viewBox="0 0 24 24" fill="none" xmlns="http://www.w3.org/2000/svg">
<mask id="mask0_0_2999" style="mask-type:alpha" maskUnits="userSpaceOnUse" x="0" y="0" width="24" height="24">
<rect width="24" height="24" fill="#D9D9D9"/>
</mask>
<g mask="url(#mask0_0_2999)">
<path d="M8.877 20.5H3.5V15.123C4.18467 15.0397 4.7725 14.7551 5.2635 14.2693C5.7545 13.7833 6 13.1935 6 12.5C6 11.8065 5.7545 11.2168 5.2635 10.7308C4.7725 10.2449 4.18467 9.96034 3.5 9.87701V4.5H9C9.08983 3.86417 9.36833 3.33984 9.8355 2.92701C10.3028 2.51417 10.8577 2.30775 11.5 2.30775C12.1423 2.30775 12.6972 2.51417 13.1645 2.92701C13.6317 3.33984 13.9102 3.86417 14 4.5H19.5V10C20.1358 10.0898 20.6602 10.3683 21.073 10.8355C21.4858 11.3028 21.6923 11.8577 21.6923 12.5C21.6923 13.1423 21.4858 13.6972 21.073 14.1645C20.6602 14.6317 20.1358 14.9102 19.5 15V20.5H14.123C14.0333 19.782 13.7404 19.1858 13.2443 18.7115C12.7481 18.2372 12.1667 18 11.5 18C10.8333 18 10.2519 18.2372 9.75575 18.7115C9.25958 19.1858 8.96667 19.782 8.877 20.5ZM5 19H7.7115C8.05383 18.118 8.59458 17.4808 9.33375 17.0885C10.0728 16.6962 10.7948 16.5 11.5 16.5C12.2052 16.5 12.9273 16.6962 13.6663 17.0885C14.4054 17.4808 14.9462 18.118 15.2885 19H18V13.5578H19.2308C19.5371 13.5193 19.7739 13.3955 19.9413 13.1865C20.1086 12.9775 20.1923 12.7487 20.1923 12.5C20.1923 12.2513 20.1086 12.0225 19.9413 11.8135C19.7739 11.6045 19.5371 11.4808 19.2308 11.4423H18V6.00001H12.5578V4.76926C12.5193 4.46292 12.3955 4.22609 12.1865 4.05875C11.9775 3.89142 11.7487 3.80775 11.5 3.80775C11.2513 3.80775 11.0225 3.89142 10.8135 4.05875C10.6045 4.22609 10.4808 4.46292 10.4423 4.76926V6.00001H5V8.7385C5.759 9.05267 6.36542 9.55167 6.81925 10.2355C7.27308 10.9195 7.5 11.6743 7.5 12.5C7.5 13.3153 7.27308 14.065 6.81925 14.749C6.36542 15.433 5.759 15.9372 5 16.2615V19Z" fill="#0D1292"/>
</g>
</svg>
