<svg width="150" height="32" viewBox="0 0 150 32" fill="none" xmlns="http://www.w3.org/2000/svg">
<g clip-path="url(#clip0_2631_3212)">
<path d="M41.7486 0.558594H37.8855V25.7211H41.7486V0.558594Z" fill="black"/>
<path d="M66.5053 27.5581H37.9539V31.5305H66.5053V27.5581Z" fill="black"/>
<path d="M76.3978 0.545898H72.5347V25.6687H76.3978V0.545898Z" fill="black"/>
<path d="M103.444 0.545898H99.5806V25.6687H103.444V0.545898Z" fill="black"/>
<path d="M99.5805 27.5908H76.3992V31.454H99.5805V27.5908Z" fill="black"/>
<path d="M27.9599 0.545898H1.08423V4.40904H27.9599V0.545898Z" fill="black"/>
<path d="M4.82359 12.6968V0.496582H0.960449V12.6968V14.0672V17.9304V27.5907V31.4539V31.4663H4.82359V31.4539H27.9627V27.5907H4.82359V17.9304H27.9627V14.0672H4.82359V12.6968Z" fill="black"/>
<path d="M31.7456 4.46924H28.0215V14.1519H31.7456V4.46924Z" fill="black"/>
<path d="M31.7456 17.8755H28.0215V27.5582H31.7456V17.8755Z" fill="black"/>
<path d="M108.558 2.73349L120.393 14.5662L123.129 11.8377L111.291 0L108.558 2.73349Z" fill="black"/>
<path d="M125.991 20.1621L137.829 31.9998L140.557 29.2663L128.724 17.4336L125.991 20.1621Z" fill="black"/>
<path d="M120.39 17.4294L108.556 29.2637L111.289 31.9971L123.124 20.1628L120.39 17.4294Z" fill="black"/>
<path d="M125.991 11.8377L128.724 14.5712L140.557 2.73349L137.829 0L125.991 11.8377Z" fill="black"/>
<path d="M143.479 0.538697H144.318V2.83771H144.84V0.538697H145.679V0.0620117H143.479V0.538697Z" fill="black"/>
<path d="M148.961 0L147.641 1.72302L146.317 0H146.24V2.83777H146.762V1.35061L147.613 2.49267H147.65L148.512 1.3382V2.83777H149.041V0H148.961Z" fill="black"/>
</g>
<defs>
<clipPath id="clip0_2631_3212">
<rect width="148.08" height="32" fill="white" transform="translate(0.959717)"/>
</clipPath>
</defs>
</svg>
