<svg width="25" height="10" viewBox="0 0 25 10" fill="none" xmlns="http://www.w3.org/2000/svg">
<path d="M0.635905 5.08154L4.14563 8.81876C4.45578 9.14901 5.01011 8.92953 5.01011 8.47647V6.48926C5.01011 6.21312 5.23396 5.98926 5.51011 5.98926L19.1188 5.98926C19.3949 5.98926 19.6188 6.21312 19.6188 6.48926V8.47647C19.6188 8.92953 20.1731 9.14901 20.4833 8.81876L23.993 5.08154C24.1737 4.88913 24.1737 4.58939 23.993 4.39697L20.4833 0.65976C20.1731 0.329507 19.6188 0.548989 19.6188 1.00205V2.98926C19.6188 3.2654 19.3949 3.48926 19.1188 3.48926L5.51011 3.48926C5.23396 3.48926 5.01011 3.2654 5.01011 2.98926V1.00205C5.01011 0.548989 4.45578 0.329507 4.14563 0.65976L0.635905 4.39697C0.455201 4.58939 0.455201 4.88913 0.635905 5.08154Z" fill="black" stroke="white"/>
</svg>
