<svg width="20" height="21" viewBox="0 0 20 21" fill="none" xmlns="http://www.w3.org/2000/svg">
<mask id="mask0_2600_4242" style="mask-type:alpha" maskUnits="userSpaceOnUse" x="0" y="0" width="20" height="21">
<rect y="0.0874023" width="20" height="20" fill="#D9D9D9"/>
</mask>
<g mask="url(#mask0_2600_4242)">
<path d="M10 14.0299C10.1907 14.0299 10.3506 13.9653 10.4796 13.8363C10.6087 13.7073 10.6732 13.5474 10.6732 13.3567C10.6732 13.166 10.6087 13.0062 10.4796 12.8771C10.3506 12.7483 10.1907 12.6838 10 12.6838C9.80935 12.6838 9.64949 12.7483 9.52046 12.8771C9.39143 13.0062 9.32692 13.166 9.32692 13.3567C9.32692 13.5474 9.39143 13.7073 9.52046 13.8363C9.64949 13.9653 9.80935 14.0299 10 14.0299ZM9.37504 10.9851H10.625V5.98507H9.37504V10.9851ZM10.0015 18.0042C8.9065 18.0042 7.87726 17.7965 6.91379 17.3809C5.95032 16.9653 5.11226 16.4014 4.39962 15.689C3.68698 14.9767 3.12275 14.139 2.70692 13.1759C2.29122 12.2128 2.08337 11.1839 2.08337 10.089C2.08337 8.99402 2.29115 7.96479 2.70671 7.00131C3.12226 6.03784 3.68622 5.19979 4.39858 4.48715C5.11094 3.77451 5.94865 3.21027 6.91171 2.79444C7.87476 2.37875 8.90372 2.1709 9.99858 2.1709C11.0936 2.1709 12.1228 2.37868 13.0863 2.79423C14.0498 3.20979 14.8878 3.77375 15.6005 4.48611C16.3131 5.19847 16.8773 6.03618 17.2932 6.99923C17.7089 7.96229 17.9167 8.99125 17.9167 10.0861C17.9167 11.1811 17.7089 12.2103 17.2934 13.1738C16.8778 14.1373 16.3139 14.9753 15.6015 15.688C14.8891 16.4006 14.0514 16.9649 13.0884 17.3807C12.1253 17.7964 11.0964 18.0042 10.0015 18.0042ZM10 16.7542C11.8612 16.7542 13.4375 16.1084 14.7292 14.8167C16.0209 13.5251 16.6667 11.9487 16.6667 10.0876C16.6667 8.22645 16.0209 6.65006 14.7292 5.3584C13.4375 4.06673 11.8612 3.4209 10 3.4209C8.13893 3.4209 6.56254 4.06673 5.27087 5.3584C3.97921 6.65006 3.33337 8.22645 3.33337 10.0876C3.33337 11.9487 3.97921 13.5251 5.27087 14.8167C6.56254 16.1084 8.13893 16.7542 10 16.7542Z" fill="#0C1083"/>
</g>
</svg>
