<svg width="186" height="40" viewBox="0 0 186 40" fill="none" xmlns="http://www.w3.org/2000/svg">
<g clip-path="url(#clip0_0_3093)">
<path d="M50.9852 0.698242H46.1562V32.1514H50.9852V0.698242Z" fill="#0D1292"/>
<path d="M81.9296 34.4478H46.2402V39.4133H81.9296V34.4478Z" fill="#0D1292"/>
<path d="M94.2977 0.682777H89.4688V32.0863H94.2977V0.682777Z" fill="#0D1292"/>
<path d="M128.102 0.682777H123.273V32.0863H128.102V0.682777Z" fill="#0D1292"/>
<path d="M123.274 34.4883H94.2969V39.3172H123.274V34.4883Z" fill="#0D1292"/>
<path d="M33.7509 0.682777H0.15625V5.5117H33.7509V0.682777Z" fill="#0D1292"/>
<path d="M4.82893 15.871V0.620728H0V15.871V17.584V22.413V34.4884V39.3173V39.3328H4.82893V39.3173H33.7528V34.4884H4.82893V22.413H33.7528V17.584H4.82893V15.871Z" fill="#0D1292"/>
<path d="M38.4833 5.58634H33.8281V17.6897H38.4833V5.58634Z" fill="#0D1292"/>
<path d="M38.4833 22.3446H33.8281V34.4479H38.4833V22.3446Z" fill="#0D1292"/>
<path d="M134.496 3.41687L149.29 18.2078L152.71 14.7971L137.913 0L134.496 3.41687Z" fill="#0D1292"/>
<path d="M156.289 25.2029L171.086 40L174.497 36.5831L159.706 21.7922L156.289 25.2029Z" fill="#0D1292"/>
<path d="M149.287 21.7866L134.494 36.5794L137.911 39.9961L152.704 25.2033L149.287 21.7866Z" fill="#0D1292"/>
<path d="M156.289 14.7971L159.706 18.214L174.497 3.41687L171.086 0L156.289 14.7971Z" fill="#0D1292"/>
<path d="M178.148 0.673372H179.197V3.54714H179.849V0.673372H180.898V0.0775146H178.148V0.673372Z" fill="#0D1292"/>
<path d="M185.001 0L183.35 2.15377L181.696 0H181.6V3.54721H182.251V1.68826L183.316 3.11584H183.362L184.439 1.67274V3.54721H185.1V0H185.001Z" fill="#0D1292"/>
</g>
<defs>
<clipPath id="clip0_0_3093">
<rect width="185.101" height="40" fill="white"/>
</clipPath>
</defs>
</svg>
