<svg width="25" height="24" viewBox="0 0 25 24" fill="none" xmlns="http://www.w3.org/2000/svg">
<mask id="mask0_2773_3195" style="mask-type:alpha" maskUnits="userSpaceOnUse" x="0" y="0" width="25" height="24">
<rect x="0.5" width="24" height="24" fill="#D9D9D9"/>
</mask>
<g mask="url(#mask0_2773_3195)">
<path d="M12.5288 20.4999C10.1678 20.4999 8.16089 19.6734 6.50805 18.0206C4.85539 16.3679 4.02905 14.361 4.02905 11.9999C4.02905 9.73702 4.79664 7.79635 6.3318 6.17785C7.86697 4.55919 9.74672 3.68252 11.9711 3.54785C12.1147 3.54785 12.2558 3.55302 12.3943 3.56335C12.5326 3.57368 12.6685 3.5891 12.8018 3.6096C12.2916 4.08644 11.8853 4.66268 11.5828 5.33835C11.2801 6.01402 11.1288 6.73452 11.1288 7.49985C11.1288 9.13869 11.7025 10.5318 12.8498 11.6791C13.997 12.8263 15.39 13.3999 17.0288 13.3999C17.8045 13.3999 18.5276 13.2486 19.1981 12.9461C19.8686 12.6434 20.4391 12.237 20.9096 11.7269C20.9301 11.8602 20.9455 11.9961 20.9558 12.1346C20.966 12.2729 20.9711 12.4139 20.9711 12.5576C20.8429 14.7819 19.9696 16.6617 18.3511 18.1969C16.7324 19.7322 14.7916 20.4999 12.5288 20.4999ZM12.5288 18.9999C13.9955 18.9999 15.3121 18.5957 16.4788 17.7874C17.6455 16.979 18.4955 15.9249 19.0288 14.6249C18.6955 14.7082 18.3621 14.7749 18.0288 14.8249C17.6955 14.8749 17.3621 14.8999 17.0288 14.8999C14.9788 14.8999 13.233 14.179 11.7913 12.7374C10.3496 11.2957 9.6288 9.54985 9.6288 7.49985C9.6288 7.16652 9.6538 6.83319 9.7038 6.49985C9.7538 6.16652 9.82047 5.83319 9.9038 5.49985C8.6038 6.03319 7.54964 6.88319 6.7413 8.04985C5.93297 9.21652 5.5288 10.5332 5.5288 11.9999C5.5288 13.9332 6.21214 15.5832 7.5788 16.9499C8.94547 18.3165 10.5955 18.9999 12.5288 18.9999Z" fill="#0C1083"/>
</g>
</svg>
