<svg width="24" height="24" viewBox="0 0 24 24" fill="none" xmlns="http://www.w3.org/2000/svg">
<mask id="mask0_2764_51371" style="mask-type:alpha" maskUnits="userSpaceOnUse" x="0" y="0" width="24" height="24">
<rect width="24" height="24" fill="#D9D9D9"/>
</mask>
<g mask="url(#mask0_2764_51371)">
<path d="M12.0288 20.5C9.6678 20.5 7.66089 19.6736 6.00805 18.0208C4.35539 16.3681 3.52905 14.3612 3.52905 12C3.52905 9.73717 4.29664 7.7965 5.8318 6.178C7.36697 4.55934 9.24672 3.68267 11.4711 3.548C11.6147 3.548 11.7558 3.55317 11.8943 3.5635C12.0326 3.57384 12.1685 3.58925 12.3018 3.60975C11.7916 4.08659 11.3853 4.66284 11.0828 5.3385C10.7801 6.01417 10.6288 6.73467 10.6288 7.50001C10.6288 9.13884 11.2025 10.5319 12.3498 11.6793C13.497 12.8264 14.89 13.4 16.5288 13.4C17.3045 13.4 18.0276 13.2488 18.6981 12.9463C19.3686 12.6436 19.9391 12.2372 20.4096 11.727C20.4301 11.8603 20.4455 11.9963 20.4558 12.1348C20.466 12.2731 20.4711 12.4141 20.4711 12.5578C20.3429 14.7821 19.4696 16.6618 17.8511 18.197C16.2324 19.7323 14.2916 20.5 12.0288 20.5Z" fill="#0C1083"/>
</g>
</svg>
