<svg width="10" height="25" viewBox="0 0 10 25" fill="none" xmlns="http://www.w3.org/2000/svg">
<path d="M4.39599 0.635905L0.658784 4.14563C0.32853 4.45578 0.548013 5.01011 1.00107 5.01011L2.98828 5.01011C3.26442 5.01011 3.48828 5.23396 3.48828 5.51011L3.48828 19.1188C3.48828 19.3949 3.26442 19.6188 2.98828 19.6188H1.00107C0.548013 19.6188 0.32853 20.1731 0.658784 20.4833L4.39599 23.993C4.58841 24.1737 4.88815 24.1737 5.08057 23.993L8.81778 20.4833C9.14803 20.1731 8.92855 19.6188 8.47549 19.6188H6.48828C6.21214 19.6188 5.98828 19.3949 5.98828 19.1188L5.98828 5.51011C5.98828 5.23396 6.21214 5.01011 6.48828 5.01011L8.47549 5.01011C8.92855 5.01011 9.14803 4.45578 8.81778 4.14563L5.08057 0.635905C4.88815 0.455201 4.58841 0.455201 4.39599 0.635905Z" fill="black" stroke="white"/>
</svg>
