<svg width="19" height="19" viewBox="0 0 19 19" fill="none" xmlns="http://www.w3.org/2000/svg">
<path d="M17.1775 0.661426L12.0532 0.500572C11.6003 0.486357 11.3636 1.03352 11.6839 1.35388L13.0891 2.75905C13.2844 2.95431 13.2844 3.27089 13.0891 3.46616L3.4663 13.089C3.27103 13.2842 2.95445 13.2842 2.75919 13.089L1.35402 11.6838C1.03366 11.3634 0.486498 11.6002 0.500713 12.053L0.661567 17.1774C0.669848 17.4412 0.881797 17.6532 1.14563 17.6615L6.26999 17.8223C6.72283 17.8365 6.95959 17.2894 6.63923 16.969L5.23406 15.5638C5.0388 15.3686 5.0388 15.052 5.23406 14.8567L14.8569 5.23392C15.0521 5.03866 15.3687 5.03866 15.564 5.23392L16.9691 6.63909C17.2895 6.95945 17.8367 6.72269 17.8224 6.26985L17.6616 1.14549C17.6533 0.881657 17.4414 0.669708 17.1775 0.661426Z" fill="black" stroke="white"/>
</svg>
