<svg width="19" height="19" viewBox="0 0 19 19" fill="none" xmlns="http://www.w3.org/2000/svg">
<path d="M0.661426 1.14474L0.500572 6.2691C0.486357 6.72193 1.03352 6.9587 1.35388 6.63834L2.75905 5.23317C2.95431 5.03791 3.27089 5.03791 3.46616 5.23317L13.089 14.856C13.2842 15.0512 13.2842 15.3678 13.089 15.5631L11.6838 16.9682C11.3634 17.2886 11.6002 17.8358 12.053 17.8216L17.1774 17.6607C17.4412 17.6524 17.6532 17.4405 17.6615 17.1766L17.8223 12.0523C17.8365 11.5994 17.2894 11.3627 16.969 11.683L15.5638 13.0882C15.3686 13.2835 15.052 13.2835 14.8567 13.0882L5.23392 3.4654C5.03866 3.27014 5.03866 2.95356 5.23392 2.75829L6.63909 1.35312C6.95945 1.03276 6.72269 0.485602 6.26985 0.499817L1.14549 0.660671C0.881657 0.668953 0.669708 0.880902 0.661426 1.14474Z" fill="black" stroke="white"/>
</svg>
