<svg width="24" height="24" viewBox="0 0 24 24" fill="none" xmlns="http://www.w3.org/2000/svg">
<path d="M6.39533 7.04962C6.22361 6.6375 6.63751 6.22361 7.04962 6.39533L21.2693 12.3201C21.7003 12.4997 21.672 13.1203 21.2264 13.2596L15.906 14.9217C15.4364 15.0685 15.0685 15.4364 14.9217 15.906L13.2596 21.2264C13.1203 21.672 12.4997 21.7003 12.3201 21.2693L6.39533 7.04962Z" fill="black" stroke="white"/>
<rect x="1.21213" y="15.4482" width="4.57588" height="1.7" rx="0.85" transform="rotate(-45 1.21213 15.4482)" fill="black" stroke="white" stroke-width="0.3"/>
<rect x="4.44727" y="5.65017" width="4.57588" height="1.7" rx="0.85" transform="rotate(-135 4.44727 5.65017)" fill="black" stroke="white" stroke-width="0.3"/>
<rect x="12.2121" y="4.44824" width="4.57588" height="1.7" rx="0.85" transform="rotate(-45 12.2121 4.44824)" fill="black" stroke="white" stroke-width="0.3"/>
<path d="M2 8.15039H4C4.46944 8.15039 4.84961 8.53056 4.84961 9C4.84961 9.46944 4.46944 9.84961 4 9.84961H2C1.53056 9.84961 1.15039 9.46944 1.15039 9C1.15039 8.53056 1.53056 8.15039 2 8.15039Z" fill="black" stroke="white" stroke-width="0.3"/>
<path d="M8.15039 4V2C8.15039 1.53056 8.53056 1.15039 9 1.15039C9.46944 1.15039 9.84961 1.53056 9.84961 2V4C9.84961 4.46944 9.46944 4.84961 9 4.84961C8.53056 4.84961 8.15039 4.46944 8.15039 4Z" fill="black" stroke="white" stroke-width="0.3"/>
</svg>
