<svg width="25" height="24" viewBox="0 0 25 24" fill="none" xmlns="http://www.w3.org/2000/svg">
<mask id="mask0_0_3070" style="mask-type:alpha" maskUnits="userSpaceOnUse" x="0" y="0" width="25" height="24">
<rect width="24" height="24" transform="matrix(-1 0 0 1 24.5 0)" fill="#D9D9D9"/>
</mask>
<g mask="url(#mask0_0_3070)">
<path d="M14.6 19C16.2167 19 17.6042 18.475 18.7625 17.425C19.9208 16.375 20.5 15.0667 20.5 13.5C20.5 11.9333 19.9208 10.625 18.7625 9.575C17.6042 8.525 16.2167 8 14.6 8H8.3L10.9 5.4L9.5 4L4.5 9L9.5 14L10.9 12.6L8.3 10H14.6C15.65 10 16.5625 10.3333 17.3375 11C18.1125 11.6667 18.5 12.5 18.5 13.5C18.5 14.5 18.1125 15.3333 17.3375 16C16.5625 16.6667 15.65 17 14.6 17H7.5V19H14.6Z" fill="#0D1292"/>
</g>
</svg>
