<svg width="24" height="24" viewBox="0 0 24 24" fill="none" xmlns="http://www.w3.org/2000/svg">
<path d="M12.4613 19C14.5659 19 16.3485 18.2736 17.809 16.8207C19.2697 15.3679 20 13.5948 20 11.5015C20 9.40817 19.2697 7.63458 17.809 6.18075C16.3485 4.72692 14.5659 4 12.4613 4C11.2861 4 10.174 4.25992 9.12492 4.77975C8.07604 5.29975 7.20364 6.03342 6.50774 6.98075V4H5V10.1152H11.1468V8.6155H7.17642C7.70614 7.65 8.44075 6.88942 9.38023 6.33375C10.3196 5.77792 11.3466 5.5 12.4613 5.5C14.1366 5.5 15.5605 6.08333 16.7332 7.25C17.9059 8.41667 18.4923 9.83333 18.4923 11.5C18.4923 13.1667 17.9059 14.5833 16.7332 15.75C15.5605 16.9167 14.1366 17.5 12.4613 17.5C11.1713 17.5 10.007 17.1333 8.96837 16.4C7.92971 15.6667 7.20097 14.7 6.78215 13.5H5.19324C5.64942 15.132 6.54795 16.4567 7.88883 17.474C9.22971 18.4913 10.7539 19 12.4613 19Z" fill="#0C1083"/>
</svg>
