<svg width="20" height="20" viewBox="0 0 20 20" fill="none" xmlns="http://www.w3.org/2000/svg">
<mask id="mask0_2774_1434" style="mask-type:alpha" maskUnits="userSpaceOnUse" x="0" y="0" width="20" height="20">
<rect width="20" height="20" fill="#D9D9D9"/>
</mask>
<g mask="url(#mask0_2774_1434)">
<path d="M2.91663 17.0832V15.7369H4.26288V17.0832H2.91663ZM2.91663 13.878V12.5319H4.26288V13.878H2.91663ZM2.91663 10.673V9.32671H4.26288V10.673H2.91663ZM2.91663 7.46775V6.12171H4.26288V7.46775H2.91663ZM2.91663 4.26275V2.9165H4.26288V4.26275H2.91663ZM6.12183 17.0832V15.7369H7.46788V17.0832H6.12183ZM6.12183 4.26275V2.9165H7.46788V4.26275H6.12183ZM9.32684 17.0832V15.7369H10.6731V17.0832H9.32684ZM12.532 17.0832V15.7369H13.8781V17.0832H12.532ZM15.737 17.0832V15.7369H17.0833V17.0832H15.737ZM15.737 13.878V12.5319H17.0833V13.878H15.737ZM17.0833 10.673H15.8333V6.79463C15.8333 6.06463 15.5777 5.44414 15.0666 4.93317C14.5557 4.42206 13.9352 4.1665 13.2052 4.1665H9.32684V2.9165H13.2052C14.2831 2.9165 15.1989 3.29338 15.9527 4.04713C16.7064 4.80088 17.0833 5.71671 17.0833 6.79463V10.673Z" fill="#0C1083"/>
</g>
</svg>
