<svg width="25" height="24" viewBox="0 0 25 24" fill="none" xmlns="http://www.w3.org/2000/svg">
<mask id="mask0_2773_3189" style="mask-type:alpha" maskUnits="userSpaceOnUse" x="0" y="0" width="25" height="24">
<rect x="0.5" width="24" height="24" fill="#D9D9D9"/>
</mask>
<g mask="url(#mask0_2773_3189)">
<path d="M12.5 16.5C11.2513 16.5 10.1892 16.0622 9.3135 15.1865C8.43783 14.3108 8 13.2487 8 12C8 10.7513 8.43783 9.68917 9.3135 8.8135C10.1892 7.93783 11.2513 7.5 12.5 7.5C13.7487 7.5 14.8108 7.93783 15.6865 8.8135C16.5622 9.68917 17 10.7513 17 12C17 13.2487 16.5622 14.3108 15.6865 15.1865C14.8108 16.0622 13.7487 16.5 12.5 16.5ZM5.5 12.75H1.75V11.25H5.5V12.75ZM23.25 12.75H19.5V11.25H23.25V12.75ZM11.75 5V1.25H13.25V5H11.75ZM11.75 22.75V19H13.25V22.75H11.75ZM7.073 7.577L4.73075 5.3155L5.7905 4.20575L8.04625 6.523L7.073 7.577ZM19.2095 19.7943L16.9385 17.4615L17.927 16.423L20.2693 18.6845L19.2095 19.7943ZM16.923 6.573L19.1845 4.23075L20.2943 5.2905L17.977 7.54625L16.923 6.573ZM4.70575 18.7095L7.0385 16.4385L8.05775 17.427L5.80575 19.7788L4.70575 18.7095Z" fill="#0C1083"/>
</g>
</svg>
