<svg width="24" height="24" viewBox="0 0 24 24" fill="none" xmlns="http://www.w3.org/2000/svg">
<mask id="mask0_513_11213" style="mask-type:alpha" maskUnits="userSpaceOnUse" x="0" y="0" width="24" height="24">
<rect width="24" height="24" fill="#D9D9D9"/>
</mask>
<g mask="url(#mask0_513_11213)">
<path d="M12.0495 19.75C9.88662 19.75 8.04595 18.9974 6.52745 17.4923C5.00879 15.9871 4.24945 14.1563 4.24945 12V11.2192L2.39945 13.0693L1.3457 12.0155L4.99945 8.3615L8.6532 12.0155L7.59945 13.0693L5.74945 11.2192V12C5.74945 13.7372 6.36095 15.2132 7.58395 16.428C8.80712 17.6427 10.2956 18.25 12.0495 18.25C12.4636 18.25 12.8774 18.2048 13.2907 18.1145C13.7042 18.024 14.1078 17.8884 14.5015 17.7078L15.6265 18.8328C15.0636 19.1353 14.4825 19.3637 13.8832 19.5182C13.2837 19.6727 12.6725 19.75 12.0495 19.75ZM18.9995 15.6385L15.3457 11.9845L16.3995 10.9307L18.2495 12.7808V12C18.2495 10.2628 17.638 8.78683 16.415 7.572C15.1918 6.35733 13.7033 5.75 11.9495 5.75C11.5353 5.75 11.1215 5.79517 10.7082 5.8855C10.2947 5.976 9.89112 6.11158 9.49745 6.29225L8.37245 5.16725C8.93529 4.86475 9.51637 4.63625 10.1157 4.48175C10.7152 4.32725 11.3265 4.25 11.9495 4.25C14.1123 4.25 15.953 5.00258 17.4715 6.50775C18.9901 8.01292 19.7495 9.84367 19.7495 12V12.7808L21.5995 10.9307L22.6532 11.9845L18.9995 15.6385Z" fill="#0C1083"/>
</g>
</svg>
