<svg width="150" height="32" viewBox="0 0 150 32" fill="none" xmlns="http://www.w3.org/2000/svg">
<g clip-path="url(#clip0_2774_6181)">
<path d="M41.7489 0.558594H37.8857V25.7211H41.7489V0.558594Z" fill="white"/>
<path d="M66.5056 27.5581H37.9541V31.5305H66.5056V27.5581Z" fill="white"/>
<path d="M76.3983 0.545898H72.5352V25.6687H76.3983V0.545898Z" fill="white"/>
<path d="M103.444 0.545898H99.5811V25.6687H103.444V0.545898Z" fill="white"/>
<path d="M99.5807 27.5908H76.3994V31.454H99.5807V27.5908Z" fill="white"/>
<path d="M27.9602 0.545898H1.08447V4.40904H27.9602V0.545898Z" fill="white"/>
<path d="M4.82408 12.6968V0.496582H0.960938V12.6968V14.0672V17.9304V27.5907V31.4539V31.4663H4.82408V31.4539H27.9632V27.5907H4.82408V17.9304H27.9632V14.0672H4.82408V12.6968Z" fill="white"/>
<path d="M31.7461 4.46924H28.022V14.1519H31.7461V4.46924Z" fill="white"/>
<path d="M31.7461 17.8755H28.022V27.5582H31.7461V17.8755Z" fill="white"/>
<path d="M108.558 2.73349L120.393 14.5662L123.129 11.8377L111.292 0L108.558 2.73349Z" fill="white"/>
<path d="M125.991 20.1621L137.829 31.9998L140.557 29.2663L128.725 17.4336L125.991 20.1621Z" fill="white"/>
<path d="M120.39 17.4294L108.556 29.2637L111.29 31.9971L123.124 20.1628L120.39 17.4294Z" fill="white"/>
<path d="M125.991 11.8377L128.725 14.5712L140.557 2.73349L137.829 0L125.991 11.8377Z" fill="white"/>
<path d="M143.479 0.538697H144.319V2.83771H144.84V0.538697H145.679V0.0620117H143.479V0.538697Z" fill="white"/>
<path d="M148.961 0L147.641 1.72302L146.317 0H146.24V2.83777H146.762V1.35061L147.613 2.49267H147.65L148.512 1.3382V2.83777H149.041V0H148.961Z" fill="white"/>
</g>
<defs>
<clipPath id="clip0_2774_6181">
<rect width="148.08" height="32" fill="white" transform="translate(0.959961)"/>
</clipPath>
</defs>
</svg>
