<svg width="24" height="24" viewBox="0 0 24 24" fill="none" xmlns="http://www.w3.org/2000/svg">
<mask id="mask0_0_3014" style="mask-type:alpha" maskUnits="userSpaceOnUse" x="0" y="0" width="24" height="24">
<rect width="24" height="24" fill="#D9D9D9"/>
</mask>
<g mask="url(#mask0_0_3014)">
<path d="M12.002 21.4998C10.6995 21.4998 9.47029 21.2502 8.31446 20.7508C7.15862 20.2515 6.15062 19.5717 5.29045 18.7113C4.43012 17.8512 3.75029 16.8432 3.25095 15.6873C2.75162 14.5315 2.50195 13.3023 2.50195 11.9998C2.50195 10.687 2.75162 9.45524 3.25095 8.30457C3.75029 7.1539 4.43012 6.14848 5.29045 5.28832C6.15062 4.42798 7.15862 3.74815 8.31446 3.24882C9.47029 2.74948 10.6995 2.49982 12.002 2.49982C13.3148 2.49982 14.5465 2.74948 15.6972 3.24882C16.8479 3.74815 17.8533 4.42798 18.7135 5.28832C19.5738 6.14848 20.2536 7.1539 20.753 8.30457C21.2523 9.45524 21.502 10.687 21.502 11.9998C21.502 13.3023 21.2523 14.5315 20.753 15.6873C20.2536 16.8432 19.5738 17.8512 18.7135 18.7113C17.8533 19.5717 16.8479 20.2515 15.6972 20.7508C14.5465 21.2502 13.3148 21.4998 12.002 21.4998ZM12.002 19.9786C12.5123 19.3017 12.9418 18.6191 13.2905 17.9306C13.6391 17.2421 13.9231 16.4895 14.1425 15.6728H9.86146C10.0936 16.5152 10.3809 17.2806 10.7232 17.9691C11.0654 18.6576 11.4916 19.3274 12.002 19.9786ZM10.0655 19.7036C9.68212 19.1536 9.33787 18.5283 9.03271 17.8278C8.72754 17.1272 8.49037 16.4088 8.3212 15.6728H4.92895C5.45712 16.7113 6.16545 17.5838 7.05395 18.2903C7.94245 18.9967 8.94629 19.4677 10.0655 19.7036ZM13.9385 19.7036C15.0576 19.4677 16.0615 18.9967 16.95 18.2903C17.8385 17.5838 18.5468 16.7113 19.075 15.6728H15.6827C15.4814 16.4152 15.2281 17.1367 14.923 17.8373C14.618 18.538 14.2898 19.1601 13.9385 19.7036ZM4.29995 14.1728H8.01746C7.95462 13.8012 7.90904 13.4367 7.8807 13.0796C7.85254 12.7226 7.83845 12.3627 7.83845 11.9998C7.83845 11.637 7.85254 11.2771 7.8807 10.9201C7.90904 10.5629 7.95462 10.1985 8.01746 9.82682H4.29995C4.20379 10.1665 4.13012 10.5197 4.07895 10.8863C4.02762 11.253 4.00195 11.6242 4.00195 11.9998C4.00195 12.3755 4.02762 12.7467 4.07895 13.1133C4.13012 13.48 4.20379 13.8332 4.29995 14.1728ZM9.51721 14.1728H14.4867C14.5494 13.8012 14.5949 13.44 14.6232 13.0893C14.6514 12.7387 14.6655 12.3755 14.6655 11.9998C14.6655 11.6242 14.6514 11.261 14.6232 10.9103C14.5949 10.5597 14.5494 10.1985 14.4867 9.82682H9.51721C9.45454 10.1985 9.40904 10.5597 9.38071 10.9103C9.35254 11.261 9.33846 11.6242 9.33846 11.9998C9.33846 12.3755 9.35254 12.7387 9.38071 13.0893C9.40904 13.44 9.45454 13.8012 9.51721 14.1728ZM15.9865 14.1728H19.704C19.8001 13.8332 19.8738 13.48 19.925 13.1133C19.9763 12.7467 20.002 12.3755 20.002 11.9998C20.002 11.6242 19.9763 11.253 19.925 10.8863C19.8738 10.5197 19.8001 10.1665 19.704 9.82682H15.9865C16.0493 10.1985 16.0949 10.5629 16.1232 10.9201C16.1514 11.2771 16.1655 11.637 16.1655 11.9998C16.1655 12.3627 16.1514 12.7226 16.1232 13.0796C16.0949 13.4367 16.0493 13.8012 15.9865 14.1728ZM15.6827 8.32682H19.075C18.5405 7.27549 17.837 6.40299 16.9645 5.70932C16.092 5.01582 15.0833 4.54148 13.9385 4.28632C14.3218 4.86832 14.6628 5.5049 14.9615 6.19607C15.2603 6.88707 15.5007 7.59732 15.6827 8.32682ZM9.86146 8.32682H14.1425C13.9103 7.49082 13.6183 6.72057 13.2665 6.01607C12.9145 5.31157 12.493 4.64657 12.002 4.02107C11.511 4.64657 11.0895 5.31157 10.7375 6.01607C10.3856 6.72057 10.0936 7.49082 9.86146 8.32682ZM4.92895 8.32682H8.3212C8.5032 7.59732 8.74362 6.88707 9.04246 6.19607C9.34112 5.5049 9.68212 4.86832 10.0655 4.28632C8.91412 4.54148 7.90387 5.01748 7.0347 5.71432C6.16537 6.41099 5.46345 7.28182 4.92895 8.32682Z" fill="#0D1292"/>
</g>
</svg>
