<svg width="24" height="24" viewBox="0 0 24 24" fill="none" xmlns="http://www.w3.org/2000/svg">
<mask id="mask0_0_3009" style="mask-type:alpha" maskUnits="userSpaceOnUse" x="0" y="0" width="24" height="24">
<rect width="24" height="24" fill="#D9D9D9"/>
</mask>
<g mask="url(#mask0_0_3009)">
<path d="M11.9827 21.4996C10.6865 21.4996 9.46221 21.2499 8.30971 20.7506C7.15704 20.2513 6.15062 19.5714 5.29045 18.7111C4.43012 17.8509 3.75029 16.8429 3.25095 15.6871C2.75162 14.5313 2.50195 13.3021 2.50195 11.9996C2.50195 10.6804 2.75837 9.44294 3.2712 8.28711C3.78404 7.13127 4.48054 6.12585 5.3607 5.27085C6.2407 4.41569 7.27021 3.74002 8.44921 3.24385C9.62804 2.74769 10.8854 2.4996 12.2212 2.4996C13.4712 2.4996 14.6558 2.71277 15.775 3.1391C16.8943 3.56544 17.8773 4.15552 18.724 4.90935C19.5708 5.66319 20.2455 6.55902 20.748 7.59686C21.2506 8.63452 21.502 9.75977 21.502 10.9726C21.502 12.7034 20.9875 14.0573 19.9587 15.0341C18.9299 16.0111 17.611 16.4996 16.002 16.4996H14.1905C13.9058 16.4996 13.6782 16.5925 13.5077 16.7784C13.3372 16.9644 13.252 17.1843 13.252 17.4381C13.252 17.7471 13.377 18.0683 13.627 18.4016C13.877 18.7349 14.002 19.1176 14.002 19.5496C14.002 20.2098 13.8193 20.6999 13.454 21.0199C13.0885 21.3397 12.598 21.4996 11.9827 21.4996ZM6.50195 12.7496C6.85829 12.7496 7.1557 12.6304 7.39421 12.3919C7.63271 12.1534 7.75196 11.8559 7.75196 11.4996C7.75196 11.1433 7.63271 10.8459 7.39421 10.6074C7.1557 10.3689 6.85829 10.2496 6.50195 10.2496C6.14562 10.2496 5.8482 10.3689 5.6097 10.6074C5.3712 10.8459 5.25195 11.1433 5.25195 11.4996C5.25195 11.8559 5.3712 12.1534 5.6097 12.3919C5.8482 12.6304 6.14562 12.7496 6.50195 12.7496ZM9.50196 8.74961C9.85829 8.74961 10.1557 8.63036 10.3942 8.39186C10.6327 8.15336 10.752 7.85594 10.752 7.49961C10.752 7.14327 10.6327 6.84585 10.3942 6.60735C10.1557 6.36885 9.85829 6.2496 9.50196 6.2496C9.14562 6.2496 8.84821 6.36885 8.60971 6.60735C8.37121 6.84585 8.25196 7.14327 8.25196 7.49961C8.25196 7.85594 8.37121 8.15336 8.60971 8.39186C8.84821 8.63036 9.14562 8.74961 9.50196 8.74961ZM14.502 8.74961C14.8583 8.74961 15.1557 8.63036 15.3942 8.39186C15.6327 8.15336 15.752 7.85594 15.752 7.49961C15.752 7.14327 15.6327 6.84585 15.3942 6.60735C15.1557 6.36885 14.8583 6.2496 14.502 6.2496C14.1456 6.2496 13.8482 6.36885 13.6097 6.60735C13.3712 6.84585 13.252 7.14327 13.252 7.49961C13.252 7.85594 13.3712 8.15336 13.6097 8.39186C13.8482 8.63036 14.1456 8.74961 14.502 8.74961ZM17.502 12.7496C17.8583 12.7496 18.1557 12.6304 18.3942 12.3919C18.6327 12.1534 18.752 11.8559 18.752 11.4996C18.752 11.1433 18.6327 10.8459 18.3942 10.6074C18.1557 10.3689 17.8583 10.2496 17.502 10.2496C17.1456 10.2496 16.8482 10.3689 16.6097 10.6074C16.3712 10.8459 16.252 11.1433 16.252 11.4996C16.252 11.8559 16.3712 12.1534 16.6097 12.3919C16.8482 12.6304 17.1456 12.7496 17.502 12.7496Z" fill="#0D1292"/>
</g>
</svg>
