<svg width="24" height="24" viewBox="0 0 24 24" fill="none" xmlns="http://www.w3.org/2000/svg">
<path d="M18.901 11.6633H17.7232V6.46685H12.5267V5.289C12.5267 4.15445 11.7126 3.12383 10.5868 3.01124C9.28765 2.88133 8.19641 3.89463 8.19641 5.16775V6.46685H3.00866V11.49H4.21249C5.34704 11.49 6.37766 12.2522 6.59418 13.3607C6.87998 14.8504 5.74543 16.1668 4.2991 16.1668H3V21.19H8.02319V19.9775C8.02319 18.843 8.78533 17.8123 9.8939 17.5958C11.3835 17.31 12.7 18.4446 12.7 19.8909V21.19H17.7232V15.9936H19.0223C20.2954 15.9936 21.3087 14.9023 21.1788 13.6032C21.0662 12.4774 20.0269 11.6633 18.901 11.6633Z" fill="#0D1292"/>
</svg>
